<svg xmlns="http://www.w3.org/2000/svg" width="597.76" height="597.44"><path d="M0 0h597.76v597.44H0z" style="fill:#555273;stroke-width:1.00157;fill-opacity:1"/><path d="M181.549 100.123c-.074 30.508.552 60.734.187 87.07 51.853.033 95.715.006 148.825.006v80.256c-.33 41.456 4.022 77.505-3.823 112.85-3.825 17.233-26.006 29.39-50.427 28.088-23.117-1.233-48.414-15.36-68.854-39.648-20.016 19.578-39.882 45.777-57.839 64.73 32.218 48.053 89.606 64.444 135.274 64.444 46.763-1.62 87.8-9.663 118.948-46.771 26.696-36.94 30.243-60.366 30.18-93.662-.19-89.418-.205-164.58-.26-257.166-83.506-.054-168.706-.145-252.211-.198z" style="fill:#fff;stroke-width:1.00157;fill-opacity:1"/></svg>